<mxfile host="app.diagrams.net" modified="2022-04-06T03:06:21.647Z" agent="5.0 (X11; Linux x86_64) AppleWebKit/537.36 (KHTML, like Gecko) Chrome/98.0.4758.80 Safari/537.36" etag="hF9B_2MbSdHs_KbM1zcO" version="17.4.0" type="github">
  <diagram id="bfHn4IF0u4EGS9UehwDh" name="Page-1">
    <mxGraphModel dx="1563" dy="615" grid="1" gridSize="10" guides="1" tooltips="1" connect="1" arrows="1" fold="1" page="1" pageScale="1" pageWidth="1169" pageHeight="827" math="0" shadow="0">
      <root>
        <mxCell id="0" />
        <mxCell id="1" parent="0" />
        <mxCell id="WdpcHBeSCg99mthor4DJ-121" value="Mahasiswa" style="rounded=0;whiteSpace=wrap;html=1;" vertex="1" parent="1">
          <mxGeometry x="310" y="170" width="120" height="60" as="geometry" />
        </mxCell>
        <mxCell id="WdpcHBeSCg99mthor4DJ-122" value="" style="endArrow=none;html=1;rounded=0;" edge="1" parent="1" source="WdpcHBeSCg99mthor4DJ-123" target="WdpcHBeSCg99mthor4DJ-121">
          <mxGeometry width="50" height="50" relative="1" as="geometry">
            <mxPoint x="240" y="190" as="sourcePoint" />
            <mxPoint x="620" y="260" as="targetPoint" />
          </mxGeometry>
        </mxCell>
        <mxCell id="WdpcHBeSCg99mthor4DJ-123" value="nim" style="ellipse;whiteSpace=wrap;html=1;" vertex="1" parent="1">
          <mxGeometry x="130" y="60" width="120" height="80" as="geometry" />
        </mxCell>
        <mxCell id="WdpcHBeSCg99mthor4DJ-124" value="nama_mahasiswa" style="ellipse;whiteSpace=wrap;html=1;" vertex="1" parent="1">
          <mxGeometry x="100" y="150" width="120" height="80" as="geometry" />
        </mxCell>
        <mxCell id="WdpcHBeSCg99mthor4DJ-125" value="" style="endArrow=none;html=1;rounded=0;" edge="1" parent="1" source="WdpcHBeSCg99mthor4DJ-124" target="WdpcHBeSCg99mthor4DJ-121">
          <mxGeometry width="50" height="50" relative="1" as="geometry">
            <mxPoint x="570" y="310" as="sourcePoint" />
            <mxPoint x="240" y="130" as="targetPoint" />
          </mxGeometry>
        </mxCell>
        <mxCell id="WdpcHBeSCg99mthor4DJ-126" value="alamat" style="ellipse;whiteSpace=wrap;html=1;" vertex="1" parent="1">
          <mxGeometry x="260" y="40" width="120" height="80" as="geometry" />
        </mxCell>
        <mxCell id="WdpcHBeSCg99mthor4DJ-127" value="" style="endArrow=none;html=1;rounded=0;" edge="1" parent="1" source="WdpcHBeSCg99mthor4DJ-126" target="WdpcHBeSCg99mthor4DJ-121">
          <mxGeometry width="50" height="50" relative="1" as="geometry">
            <mxPoint x="710" y="310" as="sourcePoint" />
            <mxPoint x="190" y="80" as="targetPoint" />
          </mxGeometry>
        </mxCell>
        <mxCell id="WdpcHBeSCg99mthor4DJ-128" value="no_telp" style="ellipse;whiteSpace=wrap;html=1;" vertex="1" parent="1">
          <mxGeometry x="420" y="40" width="120" height="80" as="geometry" />
        </mxCell>
        <mxCell id="WdpcHBeSCg99mthor4DJ-129" value="" style="endArrow=none;html=1;rounded=0;" edge="1" parent="1" source="WdpcHBeSCg99mthor4DJ-128" target="WdpcHBeSCg99mthor4DJ-121">
          <mxGeometry width="50" height="50" relative="1" as="geometry">
            <mxPoint x="850" y="320" as="sourcePoint" />
            <mxPoint x="190" y="80" as="targetPoint" />
          </mxGeometry>
        </mxCell>
        <mxCell id="WdpcHBeSCg99mthor4DJ-130" value="Semester" style="rounded=0;whiteSpace=wrap;html=1;" vertex="1" parent="1">
          <mxGeometry x="185" y="365" width="120" height="60" as="geometry" />
        </mxCell>
        <mxCell id="WdpcHBeSCg99mthor4DJ-131" value="" style="endArrow=none;html=1;rounded=0;exitX=0.5;exitY=0;exitDx=0;exitDy=0;" edge="1" parent="1" source="WdpcHBeSCg99mthor4DJ-132" target="WdpcHBeSCg99mthor4DJ-130">
          <mxGeometry width="50" height="50" relative="1" as="geometry">
            <mxPoint x="240" y="240" as="sourcePoint" />
            <mxPoint x="620" y="310" as="targetPoint" />
          </mxGeometry>
        </mxCell>
        <mxCell id="WdpcHBeSCg99mthor4DJ-132" value="id_semester" style="ellipse;whiteSpace=wrap;html=1;" vertex="1" parent="1">
          <mxGeometry x="50" y="285" width="120" height="80" as="geometry" />
        </mxCell>
        <mxCell id="WdpcHBeSCg99mthor4DJ-133" value="jumlah_SKS" style="ellipse;whiteSpace=wrap;html=1;" vertex="1" parent="1">
          <mxGeometry x="40" y="380" width="120" height="80" as="geometry" />
        </mxCell>
        <mxCell id="WdpcHBeSCg99mthor4DJ-134" value="" style="endArrow=none;html=1;rounded=0;" edge="1" parent="1" source="WdpcHBeSCg99mthor4DJ-133" target="WdpcHBeSCg99mthor4DJ-130">
          <mxGeometry width="50" height="50" relative="1" as="geometry">
            <mxPoint x="290" y="220" as="sourcePoint" />
            <mxPoint x="240" y="180" as="targetPoint" />
          </mxGeometry>
        </mxCell>
        <mxCell id="WdpcHBeSCg99mthor4DJ-135" value="semester_ke" style="ellipse;whiteSpace=wrap;html=1;" vertex="1" parent="1">
          <mxGeometry x="340" y="285" width="120" height="80" as="geometry" />
        </mxCell>
        <mxCell id="WdpcHBeSCg99mthor4DJ-136" value="" style="endArrow=none;html=1;rounded=0;" edge="1" parent="1" source="WdpcHBeSCg99mthor4DJ-135" target="WdpcHBeSCg99mthor4DJ-130">
          <mxGeometry width="50" height="50" relative="1" as="geometry">
            <mxPoint x="710" y="360" as="sourcePoint" />
            <mxPoint x="190" y="130" as="targetPoint" />
          </mxGeometry>
        </mxCell>
        <mxCell id="WdpcHBeSCg99mthor4DJ-137" value="Biaya Kuliah" style="rounded=0;whiteSpace=wrap;html=1;" vertex="1" parent="1">
          <mxGeometry x="390" y="550" width="120" height="60" as="geometry" />
        </mxCell>
        <mxCell id="WdpcHBeSCg99mthor4DJ-138" value="" style="endArrow=none;html=1;rounded=0;" edge="1" parent="1" source="WdpcHBeSCg99mthor4DJ-139" target="WdpcHBeSCg99mthor4DJ-137">
          <mxGeometry width="50" height="50" relative="1" as="geometry">
            <mxPoint x="790" y="300" as="sourcePoint" />
            <mxPoint x="1170" y="370" as="targetPoint" />
          </mxGeometry>
        </mxCell>
        <mxCell id="WdpcHBeSCg99mthor4DJ-139" value="id_biaya_kuliah" style="ellipse;whiteSpace=wrap;html=1;" vertex="1" parent="1">
          <mxGeometry x="180" y="630" width="120" height="80" as="geometry" />
        </mxCell>
        <mxCell id="WdpcHBeSCg99mthor4DJ-140" value="total_sks" style="ellipse;whiteSpace=wrap;html=1;" vertex="1" parent="1">
          <mxGeometry x="360" y="650" width="120" height="80" as="geometry" />
        </mxCell>
        <mxCell id="WdpcHBeSCg99mthor4DJ-141" value="" style="endArrow=none;html=1;rounded=0;" edge="1" parent="1" source="WdpcHBeSCg99mthor4DJ-140" target="WdpcHBeSCg99mthor4DJ-137">
          <mxGeometry width="50" height="50" relative="1" as="geometry">
            <mxPoint x="1120" y="420" as="sourcePoint" />
            <mxPoint x="790" y="240" as="targetPoint" />
          </mxGeometry>
        </mxCell>
        <mxCell id="WdpcHBeSCg99mthor4DJ-142" value="jumlah_bayar" style="ellipse;whiteSpace=wrap;html=1;" vertex="1" parent="1">
          <mxGeometry x="400" y="450" width="120" height="80" as="geometry" />
        </mxCell>
        <mxCell id="WdpcHBeSCg99mthor4DJ-143" value="" style="endArrow=none;html=1;rounded=0;" edge="1" parent="1" source="WdpcHBeSCg99mthor4DJ-142" target="WdpcHBeSCg99mthor4DJ-137">
          <mxGeometry width="50" height="50" relative="1" as="geometry">
            <mxPoint x="1260" y="420" as="sourcePoint" />
            <mxPoint x="740" y="190" as="targetPoint" />
          </mxGeometry>
        </mxCell>
        <mxCell id="WdpcHBeSCg99mthor4DJ-146" value="Tagihan" style="rounded=0;whiteSpace=wrap;html=1;" vertex="1" parent="1">
          <mxGeometry x="750" y="530" width="120" height="60" as="geometry" />
        </mxCell>
        <mxCell id="WdpcHBeSCg99mthor4DJ-147" value="" style="endArrow=none;html=1;rounded=0;" edge="1" parent="1" source="WdpcHBeSCg99mthor4DJ-148" target="WdpcHBeSCg99mthor4DJ-146">
          <mxGeometry width="50" height="50" relative="1" as="geometry">
            <mxPoint x="890" y="530" as="sourcePoint" />
            <mxPoint x="1270" y="600" as="targetPoint" />
          </mxGeometry>
        </mxCell>
        <mxCell id="WdpcHBeSCg99mthor4DJ-148" value="id_tagihan" style="ellipse;whiteSpace=wrap;html=1;" vertex="1" parent="1">
          <mxGeometry x="680" y="630" width="120" height="80" as="geometry" />
        </mxCell>
        <mxCell id="WdpcHBeSCg99mthor4DJ-149" value="tanggal_tagihan" style="ellipse;whiteSpace=wrap;html=1;" vertex="1" parent="1">
          <mxGeometry x="816.88" y="640" width="120" height="80" as="geometry" />
        </mxCell>
        <mxCell id="WdpcHBeSCg99mthor4DJ-150" value="" style="endArrow=none;html=1;rounded=0;" edge="1" parent="1" source="WdpcHBeSCg99mthor4DJ-149" target="WdpcHBeSCg99mthor4DJ-146">
          <mxGeometry width="50" height="50" relative="1" as="geometry">
            <mxPoint x="1220" y="650" as="sourcePoint" />
            <mxPoint x="890" y="470" as="targetPoint" />
          </mxGeometry>
        </mxCell>
        <mxCell id="WdpcHBeSCg99mthor4DJ-151" value="status" style="ellipse;whiteSpace=wrap;html=1;" vertex="1" parent="1">
          <mxGeometry x="970" y="630" width="120" height="80" as="geometry" />
        </mxCell>
        <mxCell id="WdpcHBeSCg99mthor4DJ-152" value="" style="endArrow=none;html=1;rounded=0;" edge="1" parent="1" source="WdpcHBeSCg99mthor4DJ-151" target="WdpcHBeSCg99mthor4DJ-146">
          <mxGeometry width="50" height="50" relative="1" as="geometry">
            <mxPoint x="1360" y="650" as="sourcePoint" />
            <mxPoint x="840" y="420" as="targetPoint" />
          </mxGeometry>
        </mxCell>
        <mxCell id="WdpcHBeSCg99mthor4DJ-153" value="batas waktu" style="ellipse;whiteSpace=wrap;html=1;" vertex="1" parent="1">
          <mxGeometry x="1020" y="510" width="120" height="80" as="geometry" />
        </mxCell>
        <mxCell id="WdpcHBeSCg99mthor4DJ-154" value="" style="endArrow=none;html=1;rounded=0;" edge="1" parent="1" source="WdpcHBeSCg99mthor4DJ-153" target="WdpcHBeSCg99mthor4DJ-146">
          <mxGeometry width="50" height="50" relative="1" as="geometry">
            <mxPoint x="1500" y="660" as="sourcePoint" />
            <mxPoint x="840" y="420" as="targetPoint" />
          </mxGeometry>
        </mxCell>
        <mxCell id="WdpcHBeSCg99mthor4DJ-155" value="Pembayaran" style="rounded=0;whiteSpace=wrap;html=1;" vertex="1" parent="1">
          <mxGeometry x="640" y="305" width="120" height="60" as="geometry" />
        </mxCell>
        <mxCell id="WdpcHBeSCg99mthor4DJ-156" value="" style="endArrow=none;html=1;rounded=0;" edge="1" parent="1" source="WdpcHBeSCg99mthor4DJ-157" target="WdpcHBeSCg99mthor4DJ-155">
          <mxGeometry width="50" height="50" relative="1" as="geometry">
            <mxPoint x="350" y="690" as="sourcePoint" />
            <mxPoint x="730" y="760" as="targetPoint" />
          </mxGeometry>
        </mxCell>
        <mxCell id="WdpcHBeSCg99mthor4DJ-157" value="id_pembayaran" style="ellipse;whiteSpace=wrap;html=1;" vertex="1" parent="1">
          <mxGeometry x="610" y="140" width="120" height="80" as="geometry" />
        </mxCell>
        <mxCell id="WdpcHBeSCg99mthor4DJ-158" value="metode" style="ellipse;whiteSpace=wrap;html=1;" vertex="1" parent="1">
          <mxGeometry x="770" y="170" width="120" height="80" as="geometry" />
        </mxCell>
        <mxCell id="WdpcHBeSCg99mthor4DJ-159" value="" style="endArrow=none;html=1;rounded=0;" edge="1" parent="1" source="WdpcHBeSCg99mthor4DJ-158" target="WdpcHBeSCg99mthor4DJ-155">
          <mxGeometry width="50" height="50" relative="1" as="geometry">
            <mxPoint x="680" y="810" as="sourcePoint" />
            <mxPoint x="350" y="630" as="targetPoint" />
          </mxGeometry>
        </mxCell>
        <mxCell id="WdpcHBeSCg99mthor4DJ-160" value="jumlah" style="ellipse;whiteSpace=wrap;html=1;" vertex="1" parent="1">
          <mxGeometry x="880" y="245" width="120" height="80" as="geometry" />
        </mxCell>
        <mxCell id="WdpcHBeSCg99mthor4DJ-161" value="" style="endArrow=none;html=1;rounded=0;" edge="1" parent="1" source="WdpcHBeSCg99mthor4DJ-160" target="WdpcHBeSCg99mthor4DJ-155">
          <mxGeometry width="50" height="50" relative="1" as="geometry">
            <mxPoint x="820" y="810" as="sourcePoint" />
            <mxPoint x="300" y="580" as="targetPoint" />
          </mxGeometry>
        </mxCell>
        <mxCell id="WdpcHBeSCg99mthor4DJ-162" value="tanggal_pembayaran" style="ellipse;whiteSpace=wrap;html=1;" vertex="1" parent="1">
          <mxGeometry x="870" y="325" width="120" height="80" as="geometry" />
        </mxCell>
        <mxCell id="WdpcHBeSCg99mthor4DJ-163" value="" style="endArrow=none;html=1;rounded=0;" edge="1" parent="1" source="WdpcHBeSCg99mthor4DJ-162" target="WdpcHBeSCg99mthor4DJ-155">
          <mxGeometry width="50" height="50" relative="1" as="geometry">
            <mxPoint x="960" y="820" as="sourcePoint" />
            <mxPoint x="300" y="580" as="targetPoint" />
          </mxGeometry>
        </mxCell>
        <mxCell id="WdpcHBeSCg99mthor4DJ-164" value="Mengikuti" style="rhombus;whiteSpace=wrap;html=1;" vertex="1" parent="1">
          <mxGeometry x="190" y="230" width="110" height="110" as="geometry" />
        </mxCell>
        <mxCell id="WdpcHBeSCg99mthor4DJ-165" value="" style="endArrow=none;html=1;rounded=0;" edge="1" parent="1" source="WdpcHBeSCg99mthor4DJ-164" target="WdpcHBeSCg99mthor4DJ-121">
          <mxGeometry width="50" height="50" relative="1" as="geometry">
            <mxPoint x="325" y="260" as="sourcePoint" />
            <mxPoint x="375" y="210" as="targetPoint" />
          </mxGeometry>
        </mxCell>
        <mxCell id="WdpcHBeSCg99mthor4DJ-166" value="1" style="edgeLabel;html=1;align=center;verticalAlign=middle;resizable=0;points=[];" vertex="1" connectable="0" parent="WdpcHBeSCg99mthor4DJ-165">
          <mxGeometry x="0.2427" y="-1" relative="1" as="geometry">
            <mxPoint as="offset" />
          </mxGeometry>
        </mxCell>
        <mxCell id="WdpcHBeSCg99mthor4DJ-167" value="" style="endArrow=none;html=1;rounded=0;" edge="1" parent="1" source="WdpcHBeSCg99mthor4DJ-164" target="WdpcHBeSCg99mthor4DJ-130">
          <mxGeometry width="50" height="50" relative="1" as="geometry">
            <mxPoint x="317.35357142857157" y="379.99642857142857" as="sourcePoint" />
            <mxPoint x="230.00000000000006" y="309.55" as="targetPoint" />
          </mxGeometry>
        </mxCell>
        <mxCell id="WdpcHBeSCg99mthor4DJ-168" value="N" style="edgeLabel;html=1;align=center;verticalAlign=middle;resizable=0;points=[];" vertex="1" connectable="0" parent="WdpcHBeSCg99mthor4DJ-167">
          <mxGeometry x="-0.1342" y="-1" relative="1" as="geometry">
            <mxPoint as="offset" />
          </mxGeometry>
        </mxCell>
        <mxCell id="WdpcHBeSCg99mthor4DJ-169" value="Memiliki" style="rhombus;whiteSpace=wrap;html=1;" vertex="1" parent="1">
          <mxGeometry x="230" y="450" width="110" height="110" as="geometry" />
        </mxCell>
        <mxCell id="WdpcHBeSCg99mthor4DJ-170" value="" style="endArrow=none;html=1;rounded=0;" edge="1" parent="1" source="WdpcHBeSCg99mthor4DJ-169" target="WdpcHBeSCg99mthor4DJ-130">
          <mxGeometry width="50" height="50" relative="1" as="geometry">
            <mxPoint x="565" y="400" as="sourcePoint" />
            <mxPoint x="517" y="340" as="targetPoint" />
          </mxGeometry>
        </mxCell>
        <mxCell id="WdpcHBeSCg99mthor4DJ-171" value="1" style="edgeLabel;html=1;align=center;verticalAlign=middle;resizable=0;points=[];" vertex="1" connectable="0" parent="WdpcHBeSCg99mthor4DJ-170">
          <mxGeometry x="0.03" relative="1" as="geometry">
            <mxPoint as="offset" />
          </mxGeometry>
        </mxCell>
        <mxCell id="WdpcHBeSCg99mthor4DJ-172" value="" style="endArrow=none;html=1;rounded=0;" edge="1" parent="1" source="WdpcHBeSCg99mthor4DJ-169" target="WdpcHBeSCg99mthor4DJ-137">
          <mxGeometry width="50" height="50" relative="1" as="geometry">
            <mxPoint x="557.3535714285715" y="519.9964285714286" as="sourcePoint" />
            <mxPoint x="556.5" y="530.0000000000001" as="targetPoint" />
          </mxGeometry>
        </mxCell>
        <mxCell id="WdpcHBeSCg99mthor4DJ-173" value="1" style="edgeLabel;html=1;align=center;verticalAlign=middle;resizable=0;points=[];" vertex="1" connectable="0" parent="WdpcHBeSCg99mthor4DJ-172">
          <mxGeometry x="-0.1194" relative="1" as="geometry">
            <mxPoint as="offset" />
          </mxGeometry>
        </mxCell>
        <mxCell id="WdpcHBeSCg99mthor4DJ-174" value="Mengeluarkan" style="rhombus;whiteSpace=wrap;html=1;" vertex="1" parent="1">
          <mxGeometry x="570.0000000000001" y="520" width="110" height="110" as="geometry" />
        </mxCell>
        <mxCell id="WdpcHBeSCg99mthor4DJ-175" value="" style="endArrow=none;html=1;rounded=0;" edge="1" parent="1" source="WdpcHBeSCg99mthor4DJ-174" target="WdpcHBeSCg99mthor4DJ-146">
          <mxGeometry width="50" height="50" relative="1" as="geometry">
            <mxPoint x="829.2735714285716" y="542.4964285714286" as="sourcePoint" />
            <mxPoint x="682.5450000000001" y="602.5" as="targetPoint" />
          </mxGeometry>
        </mxCell>
        <mxCell id="WdpcHBeSCg99mthor4DJ-176" value="1" style="edgeLabel;html=1;align=center;verticalAlign=middle;resizable=0;points=[];" vertex="1" connectable="0" parent="WdpcHBeSCg99mthor4DJ-175">
          <mxGeometry x="0.12" y="-1" relative="1" as="geometry">
            <mxPoint as="offset" />
          </mxGeometry>
        </mxCell>
        <mxCell id="WdpcHBeSCg99mthor4DJ-177" value="" style="endArrow=none;html=1;rounded=0;entryX=1.024;entryY=0.37;entryDx=0;entryDy=0;entryPerimeter=0;" edge="1" parent="1" source="WdpcHBeSCg99mthor4DJ-174" target="WdpcHBeSCg99mthor4DJ-137">
          <mxGeometry width="50" height="50" relative="1" as="geometry">
            <mxPoint x="836.9200000000001" y="422.5" as="sourcePoint" />
            <mxPoint x="839.9969230769232" y="452.5000000000001" as="targetPoint" />
          </mxGeometry>
        </mxCell>
        <mxCell id="WdpcHBeSCg99mthor4DJ-178" value="1" style="edgeLabel;html=1;align=center;verticalAlign=middle;resizable=0;points=[];" vertex="1" connectable="0" parent="WdpcHBeSCg99mthor4DJ-177">
          <mxGeometry x="-0.1542" relative="1" as="geometry">
            <mxPoint as="offset" />
          </mxGeometry>
        </mxCell>
        <mxCell id="WdpcHBeSCg99mthor4DJ-179" value="" style="endArrow=none;html=1;rounded=0;" edge="1" parent="1" source="WdpcHBeSCg99mthor4DJ-181" target="WdpcHBeSCg99mthor4DJ-146">
          <mxGeometry width="50" height="50" relative="1" as="geometry">
            <mxPoint x="1013.8000000000001" y="332.5" as="sourcePoint" />
            <mxPoint x="810.005" y="340.0000000000001" as="targetPoint" />
          </mxGeometry>
        </mxCell>
        <mxCell id="WdpcHBeSCg99mthor4DJ-180" value="1" style="edgeLabel;html=1;align=center;verticalAlign=middle;resizable=0;points=[];" vertex="1" connectable="0" parent="WdpcHBeSCg99mthor4DJ-179">
          <mxGeometry x="-0.2155" y="-1" relative="1" as="geometry">
            <mxPoint as="offset" />
          </mxGeometry>
        </mxCell>
        <mxCell id="WdpcHBeSCg99mthor4DJ-181" value="Mengonfirmasi" style="rhombus;whiteSpace=wrap;html=1;" vertex="1" parent="1">
          <mxGeometry x="770.0000000000001" y="380" width="110" height="110" as="geometry" />
        </mxCell>
        <mxCell id="WdpcHBeSCg99mthor4DJ-182" value="" style="endArrow=none;html=1;rounded=0;" edge="1" parent="1" source="WdpcHBeSCg99mthor4DJ-181" target="WdpcHBeSCg99mthor4DJ-155">
          <mxGeometry width="50" height="50" relative="1" as="geometry">
            <mxPoint x="1006.1535714285716" y="452.4964285714286" as="sourcePoint" />
            <mxPoint x="966.88" y="413.44827586206907" as="targetPoint" />
          </mxGeometry>
        </mxCell>
        <mxCell id="WdpcHBeSCg99mthor4DJ-183" value="1" style="edgeLabel;html=1;align=center;verticalAlign=middle;resizable=0;points=[];" vertex="1" connectable="0" parent="WdpcHBeSCg99mthor4DJ-182">
          <mxGeometry x="0.2689" y="1" relative="1" as="geometry">
            <mxPoint as="offset" />
          </mxGeometry>
        </mxCell>
        <mxCell id="WdpcHBeSCg99mthor4DJ-184" value="" style="endArrow=none;html=1;rounded=0;" edge="1" parent="1" source="WdpcHBeSCg99mthor4DJ-186" target="WdpcHBeSCg99mthor4DJ-121">
          <mxGeometry width="50" height="50" relative="1" as="geometry">
            <mxPoint x="763.7735714285716" y="252.49642857142862" as="sourcePoint" />
            <mxPoint x="645.5900000000003" y="100" as="targetPoint" />
          </mxGeometry>
        </mxCell>
        <mxCell id="WdpcHBeSCg99mthor4DJ-185" value="1" style="edgeLabel;html=1;align=center;verticalAlign=middle;resizable=0;points=[];" vertex="1" connectable="0" parent="WdpcHBeSCg99mthor4DJ-184">
          <mxGeometry x="-0.0712" relative="1" as="geometry">
            <mxPoint as="offset" />
          </mxGeometry>
        </mxCell>
        <mxCell id="WdpcHBeSCg99mthor4DJ-186" value="Melakukan" style="rhombus;whiteSpace=wrap;html=1;" vertex="1" parent="1">
          <mxGeometry x="475.0000000000001" y="220" width="110" height="110" as="geometry" />
        </mxCell>
        <mxCell id="WdpcHBeSCg99mthor4DJ-187" value="" style="endArrow=none;html=1;rounded=0;" edge="1" parent="1" source="WdpcHBeSCg99mthor4DJ-186" target="WdpcHBeSCg99mthor4DJ-155">
          <mxGeometry width="50" height="50" relative="1" as="geometry">
            <mxPoint x="771.4200000000001" y="132.5" as="sourcePoint" />
            <mxPoint x="614.9769230769231" y="290" as="targetPoint" />
          </mxGeometry>
        </mxCell>
        <mxCell id="WdpcHBeSCg99mthor4DJ-188" value="N" style="edgeLabel;html=1;align=center;verticalAlign=middle;resizable=0;points=[];" vertex="1" connectable="0" parent="WdpcHBeSCg99mthor4DJ-187">
          <mxGeometry x="-0.1324" y="-1" relative="1" as="geometry">
            <mxPoint as="offset" />
          </mxGeometry>
        </mxCell>
      </root>
    </mxGraphModel>
  </diagram>
</mxfile>
